<?xml version="1.0" standalone="no"?>
<!DOCTYPE svg PUBLIC "-//W3C//DTD SVG 20010904//EN"
 "http://www.w3.org/TR/2001/REC-SVG-20010904/DTD/svg10.dtd">
<svg version="1.0" xmlns="http://www.w3.org/2000/svg"
 width="48.000000pt" height="48.000000pt" viewBox="0 0 48.000000 48.000000"
 preserveAspectRatio="xMidYMid meet">

<g transform="translate(0.000000,48.000000) scale(0.100000,-0.100000)"
fill="#ffffff" stroke="1">
<path d="M212 428 c-15 -15 -16 -44 -2 -53 6 -3 10 -17 10 -31 0 -22 -4 -24
-45 -24 -67 0 -95 -31 -95 -105 0 -48 -2 -55 -20 -55 -13 0 -20 -7 -20 -20 0
-13 7 -20 20 -20 15 0 20 -7 20 -28 0 -48 13 -52 160 -52 147 0 160 4 160 52
0 21 5 28 20 28 13 0 20 7 20 20 0 13 -7 20 -20 20 -18 0 -20 7 -20 55 0 74
-28 105 -95 105 -38 0 -45 3 -45 20 0 11 6 29 12 40 24 37 -29 79 -60 48z
m136 -160 c8 -8 12 -45 12 -100 l0 -88 -30 0 c-23 0 -30 4 -30 20 0 18 -7 20
-60 20 -53 0 -60 -2 -60 -20 0 -16 -7 -20 -30 -20 l-30 0 0 88 c0 55 4 92 12
100 16 16 200 16 216 0z"/>
<path d="M164 206 c-10 -26 4 -48 28 -44 17 2 23 10 23 28 0 18 -6 26 -23 28
-13 2 -25 -3 -28 -12z"/>
<path d="M264 206 c-10 -26 4 -48 28 -44 17 2 23 10 23 28 0 18 -6 26 -23 28
-13 2 -25 -3 -28 -12z"/>
</g>
</svg>
